<?xml version="1.0" encoding="utf-8"?>
<!-- Generator: Adobe Illustrator 16.0.0, SVG Export Plug-In . SVG Version: 6.00 Build 0)  -->
<!DOCTYPE svg PUBLIC "-//W3C//DTD SVG 1.1//EN" "http://www.w3.org/Graphics/SVG/1.1/DTD/svg11.dtd">
<svg version="1.1" id="Layer_1" xmlns="http://www.w3.org/2000/svg" xmlns:xlink="http://www.w3.org/1999/xlink" x="0px" y="0px"
	 width="25.999px" height="25.453px" viewBox="0 0 25.999 25.453" enable-background="new 0 0 25.999 25.453" xml:space="preserve">
<path fill="#9099B7" stroke="#9099B7" stroke-width="0.4519" stroke-miterlimit="10" d="M25.756,24.367
	c-0.05-3.347-1.387-6.489-3.763-8.851c-0.971-0.965-2.072-1.755-3.263-2.354c0.694-1.343,1.067-2.909,1.067-4.544
	c0-2.204-0.678-4.285-1.909-5.858c-1.278-1.635-2.996-2.535-4.839-2.535c-1.842,0-3.56,0.9-4.838,2.535
	C6.98,4.334,6.303,6.415,6.303,8.619c0,1.621,0.366,3.174,1.05,4.509c-1.177,0.582-2.267,1.35-3.232,2.288
	c-2.391,2.322-3.762,5.434-3.861,8.763l-0.025,0.858l25.536,0.188L25.756,24.367z M7.981,8.619c0-3.702,2.273-6.715,5.068-6.715
	c2.796,0,5.068,3.013,5.068,6.715c0,1.449-0.348,2.792-0.938,3.891c-0.292,0.542-0.643,1.023-1.04,1.43
	c-0.855,0.875-1.928,1.396-3.09,1.396c-1.17,0-2.25-0.529-3.108-1.416c-0.396-0.408-0.745-0.892-1.034-1.436
	C8.324,11.391,7.981,10.057,7.981,8.619z M1.995,23.371c0.274-2.564,1.426-4.936,3.295-6.751c0.886-0.86,1.892-1.556,2.979-2.07
	c1.272,1.59,2.967,2.464,4.781,2.464c1.804,0,3.488-0.863,4.758-2.433c1.099,0.529,2.113,1.243,3.003,2.127
	c1.858,1.847,2.984,4.244,3.222,6.826L1.995,23.371z"/>
</svg>
